<?xml version="1.0" encoding="UTF-8"?><svg id="a" xmlns="http://www.w3.org/2000/svg" viewBox="0 0 460.51 195.34"><rect x="1.8" y="60.72" width="75" height="30" rx="12" ry="12" fill="none" stroke="#000" stroke-miterlimit="10"/><path d="M14.66,78.59c-.35-.15-.66-.38-.93-.69s-.48-.71-.63-1.19c-.15-.48-.23-1.05-.23-1.72,0-.58.06-1.09.17-1.53.11-.44.26-.8.46-1.1.19-.3.41-.53.66-.71.25-.18.51-.3.78-.38.27-.08.54-.12.82-.12.54,0,1.01.13,1.39.4.38.27.67.63.86,1.07l-.72.34-.11.05-.04-.08c.02-.06.02-.12,0-.17-.02-.05-.07-.13-.13-.25-.2-.27-.41-.45-.62-.55-.21-.09-.43-.14-.67-.14-.31,0-.59.07-.85.21-.25.14-.47.34-.65.61s-.32.59-.41.98c-.09.38-.14.82-.14,1.31s.05.9.16,1.28c.11.38.26.72.44,1,.19.28.41.5.66.65.25.15.52.23.81.23.2,0,.39-.04.58-.11.19-.07.36-.18.52-.32.16-.14.3-.3.41-.49l.62.41c-.24.4-.53.7-.86.91-.34.21-.75.31-1.24.31-.41,0-.79-.07-1.14-.22Z" stroke-width="0"/><path d="M19.26,70.7h.95v.08s-.08.1-.09.16c-.01.06-.02.15-.02.29v2.95c.14-.22.31-.42.51-.58.2-.16.4-.29.62-.38.22-.09.44-.14.67-.14.33,0,.62.08.87.23.25.15.45.4.59.73.14.33.21.78.21,1.33v3.32h-.84v-3.29c0-.38-.04-.69-.13-.92s-.21-.39-.36-.49c-.15-.1-.32-.15-.52-.15-.14,0-.29.02-.44.07-.15.05-.3.12-.44.22-.14.1-.27.21-.38.35-.11.14-.2.3-.26.47-.06.18-.1.37-.1.59v3.15h-.84v-7.98Z" stroke-width="0"/><path d="M26.92,78.77c-.62,0-1.1-.14-1.44-.42-.34-.28-.5-.64-.5-1.08,0-.29.07-.56.22-.79.14-.24.34-.43.59-.6s.55-.29.88-.38c.34-.09.69-.13,1.07-.13.14,0,.27,0,.41,0,.14,0,.29.01.44.02.16.01.32.03.49.05l.02.66c-.14-.02-.29-.04-.44-.05-.15-.01-.29-.02-.44-.03s-.28-.01-.42-.01c-.29,0-.55.02-.79.07-.24.05-.45.12-.62.21-.18.1-.31.22-.41.37-.1.15-.14.33-.14.55,0,.17.03.31.09.42s.14.21.25.27c.1.07.23.12.37.15.14.03.29.05.46.05.31,0,.59-.05.83-.15.24-.1.45-.24.62-.43.17-.19.3-.42.39-.7s.13-.6.13-.95c0-.54-.06-.96-.19-1.26-.13-.3-.32-.52-.57-.64s-.57-.19-.97-.19c-.26,0-.52.05-.78.15-.26.1-.49.25-.7.46l-.42-.55c.26-.26.55-.45.89-.58s.69-.19,1.07-.19.69.04.98.13c.3.09.55.23.76.44.21.2.38.48.49.82.12.34.17.78.17,1.3v2.92h-.94v-.88c-.1.2-.23.36-.38.49s-.31.23-.47.29c-.17.07-.34.12-.52.14-.18.03-.34.04-.5.04Z" stroke-width="0"/><path d="M31.33,78.68v-.7h1.62v-6.59h-1.55v-.7h2.42v7.28h1.61v.7h-4.1Z" stroke-width="0"/><path d="M37.33,78.68v-.7h1.62v-6.59h-1.55v-.7h2.42v7.28h1.61v.7h-4.1Z" stroke-width="0"/><path d="M45.65,78.77c-.4,0-.76-.06-1.09-.19s-.61-.3-.85-.54c-.24-.24-.42-.53-.55-.89-.13-.35-.19-.76-.19-1.21s.07-.87.2-1.23c.13-.36.31-.66.54-.9.23-.24.5-.43.8-.55s.63-.19.98-.19c.31,0,.6.05.88.16s.51.26.71.47c.2.21.36.48.47.81.12.33.17.71.17,1.16,0,.06,0,.13,0,.2,0,.07-.01.13-.02.2h-3.9c.02.35.08.65.18.91.1.26.24.47.41.63s.36.28.58.36c.22.08.45.12.7.12.19,0,.37-.02.54-.07s.33-.11.47-.2c.15-.09.28-.21.4-.34l.48.47c-.15.18-.33.34-.52.47-.2.13-.41.22-.64.28s-.48.09-.76.09ZM43.84,75.39h3.01c0-.25-.03-.48-.1-.69-.07-.2-.16-.38-.29-.52-.12-.15-.27-.26-.44-.33-.17-.08-.37-.11-.58-.11-.19,0-.37.03-.55.1s-.33.17-.47.3c-.14.14-.27.31-.37.52-.1.21-.17.45-.21.74Z" stroke-width="0"/><path d="M49.25,78.68v-5.48h.84v.98c.14-.22.31-.42.5-.58s.4-.29.64-.38c.23-.09.47-.14.72-.14.3,0,.58.08.82.23.24.15.43.4.58.73.14.33.22.78.22,1.33v3.32h-.84v-3.29c0-.38-.04-.69-.13-.92-.09-.23-.21-.39-.36-.49-.15-.1-.32-.15-.52-.15s-.37.04-.56.12c-.19.08-.36.19-.52.34-.16.15-.29.33-.39.53s-.15.44-.15.71v3.15h-.84Z" stroke-width="0"/><path d="M57.35,80.74c-.38,0-.73-.03-1.04-.09-.31-.06-.57-.15-.79-.26-.22-.12-.39-.26-.5-.44-.12-.18-.17-.38-.17-.62,0-.22.05-.42.14-.6.1-.18.22-.32.38-.44.16-.12.33-.2.51-.26l.36.22c-.14.09-.26.18-.35.26-.09.09-.15.19-.19.3-.04.12-.06.25-.06.41,0,.14.04.26.12.36.08.11.19.2.34.27s.33.13.54.17c.21.04.45.06.73.06.37,0,.67-.04.89-.11.23-.08.4-.18.51-.31.11-.13.17-.28.17-.45,0-.18-.03-.32-.1-.43-.06-.11-.2-.2-.4-.25-.2-.06-.5-.08-.91-.08-.28,0-.54-.01-.77-.04s-.44-.06-.62-.12c-.18-.06-.34-.13-.46-.21-.12-.08-.22-.19-.28-.31s-.1-.26-.1-.42c0-.21.06-.41.17-.6.12-.19.27-.38.47-.55l.41.32c-.08.09-.14.17-.19.23-.05.07-.08.13-.1.19s-.03.13-.03.2c0,.13.05.23.15.31.1.08.27.14.52.17.25.04.58.05,1.01.05s.77.03,1.03.1.47.17.61.29.24.27.29.44.08.35.08.55c0,.22-.04.42-.13.62s-.22.37-.4.53c-.18.16-.43.28-.73.37-.3.09-.68.14-1.12.14ZM57.1,76.83c-.39,0-.73-.08-1.02-.25-.29-.17-.51-.4-.67-.68-.16-.29-.23-.6-.23-.95s.08-.66.23-.94c.16-.28.38-.51.67-.68.29-.17.63-.25,1.02-.25s.74.08,1.03.25c.28.17.5.39.66.68.16.28.23.6.23.94s-.08.66-.23.95c-.16.29-.38.51-.66.68-.28.17-.63.25-1.03.25ZM57.1,76.11c.23,0,.44-.05.62-.16.18-.1.32-.25.43-.42.1-.18.16-.37.16-.58s-.05-.41-.16-.59c-.1-.17-.25-.31-.43-.42-.18-.1-.39-.16-.62-.16s-.44.05-.62.16c-.18.1-.32.24-.43.42-.1.17-.16.37-.16.59s.05.4.16.58c.1.18.25.32.43.42.18.1.39.16.62.16ZM58.69,74.11l-.34-.4c.23-.23.47-.4.73-.51.25-.11.55-.15.89-.13l.11.71c-.26-.02-.51-.02-.74.02-.23.04-.45.14-.65.3Z" stroke-width="0"/><path d="M63.65,78.77c-.4,0-.76-.06-1.09-.19s-.61-.3-.85-.54c-.24-.24-.42-.53-.55-.89-.13-.35-.19-.76-.19-1.21s.07-.87.2-1.23c.13-.36.31-.66.54-.9.23-.24.5-.43.8-.55s.63-.19.98-.19c.31,0,.6.05.88.16s.51.26.71.47c.2.21.36.48.47.81.12.33.17.71.17,1.16,0,.06,0,.13,0,.2,0,.07-.01.13-.02.2h-3.9c.02.35.08.65.18.91.1.26.24.47.41.63s.36.28.58.36c.22.08.45.12.7.12.19,0,.37-.02.54-.07s.33-.11.47-.2c.15-.09.28-.21.4-.34l.48.47c-.15.18-.33.34-.52.47-.2.13-.41.22-.64.28s-.48.09-.76.09ZM61.84,75.39h3.01c0-.25-.03-.48-.1-.69-.07-.2-.16-.38-.29-.52-.12-.15-.27-.26-.44-.33-.17-.08-.37-.11-.58-.11-.19,0-.37.03-.55.1s-.33.17-.47.3c-.14.14-.27.31-.37.52-.1.21-.17.45-.21.74Z" stroke-width="0"/><rect x="385.01" y="60.72" width="75" height="30" rx="12" ry="12" fill="none" stroke="#000" stroke-miterlimit="10"/><path d="M400.26,79.54c-.39-.16-.73-.4-1.03-.71l.43-.76.05-.11.08.05c.02.06.04.12.06.19.02.07.08.15.17.25.21.18.45.32.73.42.28.1.59.16.94.16.22,0,.43-.03.62-.1.19-.07.35-.16.49-.27.14-.12.25-.25.32-.4.08-.16.11-.32.11-.49,0-.14-.01-.26-.04-.37s-.08-.21-.16-.3-.18-.18-.31-.27c-.13-.09-.29-.19-.49-.29s-.44-.21-.72-.33c-.52-.2-.93-.42-1.23-.65s-.51-.48-.64-.75c-.12-.26-.19-.53-.19-.81,0-.37.09-.69.28-.96s.45-.49.79-.65.75-.23,1.22-.23c.27,0,.53.04.79.11.25.08.49.18.71.32.22.14.41.3.58.5l-.47.62-.07.1-.07-.05c0-.06-.02-.13-.05-.19-.02-.06-.08-.14-.17-.24-.19-.18-.4-.31-.61-.38-.22-.07-.47-.1-.77-.1-.2,0-.38.03-.53.08-.16.06-.29.13-.4.24-.11.1-.2.22-.26.35-.06.13-.09.27-.09.41,0,.14.02.26.05.37.03.11.09.22.17.32s.19.21.33.31c.14.1.32.21.53.31s.47.21.77.33c.37.15.67.3.92.45.24.15.44.3.58.47.14.16.24.34.3.53.06.19.09.4.09.63,0,.34-.09.68-.26,1.01-.17.33-.44.6-.81.82s-.84.32-1.43.32c-.49,0-.93-.08-1.31-.24Z" stroke-width="0"/><path d="M407.61,79.74c-.5,0-.93-.12-1.31-.37s-.68-.58-.89-1.01c-.22-.43-.32-.92-.32-1.47s.11-1.05.32-1.48c.22-.43.51-.76.89-1.01s.82-.37,1.31-.37.93.12,1.31.37.68.58.89,1.01c.22.43.32.92.32,1.48s-.11,1.04-.32,1.47c-.22.43-.51.76-.89,1.01s-.82.37-1.31.37ZM407.61,79.02c.32,0,.6-.09.84-.28s.43-.44.57-.76c.14-.32.21-.69.21-1.1s-.07-.78-.21-1.1c-.14-.32-.33-.57-.57-.75-.24-.18-.52-.27-.84-.27s-.59.09-.83.27c-.24.18-.44.43-.58.75-.14.32-.21.69-.21,1.1s.07.78.21,1.1c.14.32.33.57.58.76s.52.28.83.28Z" stroke-width="0"/><path d="M411.56,79.64v-.7h1.62v-6.59h-1.55v-.7h2.42v7.28h1.61v.7h-4.1Z" stroke-width="0"/><path d="M419.26,79.74c-.22,0-.42-.03-.61-.1-.19-.06-.37-.16-.52-.29s-.29-.3-.4-.49c-.11-.2-.2-.44-.26-.72-.06-.28-.09-.59-.09-.94v-3.04h.85v3.04c0,.34.03.63.1.87.06.24.15.43.27.57.12.14.25.25.4.31s.31.1.48.1c.19,0,.38-.04.55-.11.18-.08.33-.19.47-.34s.25-.35.33-.58.12-.52.12-.85v-3h.84v4.63c0,.14,0,.29.02.43.01.14.05.28.1.43h-.83c-.04-.1-.07-.2-.08-.29-.02-.1-.03-.19-.03-.29s0-.2,0-.29c-.09.15-.19.29-.31.41-.12.12-.25.22-.4.31s-.3.15-.47.19c-.16.04-.34.07-.52.07Z" stroke-width="0"/><path d="M423.45,74.16h3.95v.71h-3.95v-.71ZM425.34,79.56c-.22-.12-.4-.31-.52-.56s-.2-.57-.23-.96-.05-.84-.03-1.37l.14-3.92.9-.11h.12s.01.07.01.07c-.04.06-.07.11-.1.17s-.05.15-.07.29l-.11,1.36.04.22-.08,1.98c-.02.61,0,1.08.05,1.41s.16.56.3.69c.14.12.34.19.58.19.26,0,.5-.05.7-.16s.42-.24.64-.4l.26.68c-.27.2-.55.35-.84.44-.29.1-.59.14-.9.14-.35,0-.64-.06-.86-.18Z" stroke-width="0"/><path d="M429.81,79.64v-.7h1.4v-4.09h-1.33v-.7h2.2v4.79h1.28v.7h-3.55ZM431.6,73.01c-.17,0-.31-.06-.43-.18s-.18-.26-.18-.43.06-.32.17-.44.26-.18.44-.18.31.06.44.19.19.27.19.44-.06.31-.19.43-.27.18-.44.18Z" stroke-width="0"/><path d="M437.61,79.74c-.5,0-.93-.12-1.31-.37s-.68-.58-.89-1.01c-.22-.43-.32-.92-.32-1.47s.11-1.05.32-1.48c.22-.43.51-.76.89-1.01s.82-.37,1.31-.37.93.12,1.31.37.68.58.89,1.01c.22.43.32.92.32,1.48s-.11,1.04-.32,1.47c-.22.43-.51.76-.89,1.01s-.82.37-1.31.37ZM437.61,79.02c.32,0,.6-.09.84-.28s.43-.44.57-.76c.14-.32.21-.69.21-1.1s-.07-.78-.21-1.1c-.14-.32-.33-.57-.57-.75-.24-.18-.52-.27-.84-.27s-.59.09-.83.27c-.24.18-.44.43-.58.75-.14.32-.21.69-.21,1.1s.07.78.21,1.1c.14.32.33.57.58.76s.52.28.83.28Z" stroke-width="0"/><path d="M441.48,79.64v-5.48h.84v.98c.14-.22.31-.42.5-.58.19-.16.4-.29.64-.38.23-.09.47-.14.72-.14.3,0,.58.08.82.23.24.15.43.4.58.73.14.33.22.78.22,1.33v3.32h-.84v-3.29c0-.38-.04-.69-.13-.92-.09-.23-.21-.39-.36-.49-.15-.1-.32-.15-.52-.15s-.37.04-.56.12c-.19.08-.36.19-.52.34-.16.15-.29.33-.39.53-.1.21-.15.44-.15.71v3.15h-.84Z" stroke-width="0"/><rect x="194.01" y="55.72" width="75" height="40" rx="12" ry="12" fill="none" stroke="#000" stroke-miterlimit="10"/><path d="M211.31,72.46v-7.48h2.4c.56,0,1.01.1,1.36.29s.6.45.76.76.25.67.25,1.06c0,.29-.04.56-.13.8s-.23.47-.41.66c-.19.19-.43.34-.71.44s-.64.16-1.04.16h-1.6v3.3h-.86ZM212.17,68.42h1.5c.37,0,.66-.05.89-.16.22-.11.39-.26.49-.46.1-.2.16-.42.16-.68s-.05-.47-.16-.67c-.1-.2-.27-.36-.49-.49-.22-.12-.52-.19-.88-.19h-1.51v2.64Z" stroke-width="0"/><path d="M218.03,66.98h.9l-.04,1.61-.11-.18c.05-.25.13-.47.25-.66.12-.19.26-.35.43-.49.17-.13.35-.23.55-.3s.41-.1.62-.1c.29,0,.55.05.8.15.24.1.46.25.65.45l-.38.67-.05.11-.08-.05c-.02-.06-.04-.12-.07-.18-.03-.06-.1-.12-.2-.2-.13-.08-.25-.13-.35-.16-.11-.03-.23-.04-.37-.04-.2,0-.4.04-.6.11s-.38.19-.55.35-.29.36-.39.61c-.1.25-.14.54-.14.88v2.9h-.88v-5.48Z" stroke-width="0"/><path d="M225.6,72.56c-.5,0-.93-.12-1.31-.37s-.68-.58-.89-1.01c-.22-.43-.32-.92-.32-1.47s.11-1.05.32-1.48c.22-.43.51-.76.89-1.01s.82-.37,1.31-.37.93.12,1.31.37.68.58.89,1.01c.22.43.32.92.32,1.48s-.11,1.04-.32,1.47c-.22.43-.51.76-.89,1.01s-.82.37-1.31.37ZM225.6,71.84c.32,0,.6-.09.84-.28s.43-.44.57-.76c.14-.32.21-.69.21-1.1s-.07-.78-.21-1.1c-.14-.32-.33-.57-.57-.75-.24-.18-.52-.27-.84-.27s-.59.09-.83.27c-.24.18-.44.43-.58.75-.14.32-.21.69-.21,1.1s.07.78.21,1.1c.14.32.33.57.58.76s.52.28.83.28Z" stroke-width="0"/><path d="M231.16,72.46c-.2-.07-.38-.17-.55-.29s-.31-.28-.44-.46l-.3.76h-.55v-7.98h.98v.08s-.08.1-.09.16c-.01.06-.02.15-.02.29v2.82c.09-.14.19-.28.31-.4.12-.12.25-.22.4-.31.14-.09.3-.15.46-.2s.32-.07.47-.07c.34,0,.64.06.92.17.28.11.51.29.71.52.2.23.35.53.46.87.11.35.16.76.16,1.23s-.06.91-.19,1.27-.3.67-.52.91c-.22.24-.47.42-.74.54-.27.12-.55.18-.84.18-.22,0-.44-.03-.64-.1ZM232.24,71.68c.18-.07.34-.19.49-.35.14-.16.26-.38.34-.65.08-.27.13-.6.13-.98,0-.36-.04-.67-.11-.93-.07-.26-.17-.48-.31-.66-.13-.17-.29-.3-.47-.39-.18-.08-.38-.12-.6-.12-.3,0-.56.09-.79.27-.23.18-.41.43-.53.75s-.19.69-.19,1.11c0,.31.03.59.08.84.06.25.14.47.26.65.12.18.27.32.46.42.19.1.42.15.69.15.19,0,.38-.04.56-.11Z" stroke-width="0"/><path d="M235.55,72.46v-.7h1.62v-6.59h-1.55v-.7h2.42v7.28h1.61v.7h-4.1Z" stroke-width="0"/><path d="M243.86,72.56c-.4,0-.76-.06-1.09-.19s-.61-.3-.85-.54c-.24-.24-.42-.53-.55-.89-.13-.35-.19-.76-.19-1.21s.07-.87.2-1.23c.13-.36.31-.66.54-.9.23-.24.5-.43.8-.55.31-.13.63-.19.98-.19.31,0,.6.05.88.16.27.1.51.26.71.47.2.21.36.48.47.81.12.33.17.71.17,1.16,0,.06,0,.13,0,.2,0,.07-.01.13-.02.2h-3.9c.02.35.08.65.18.91.1.26.24.47.41.63s.36.28.58.36c.22.08.45.12.7.12.19,0,.37-.02.54-.07s.33-.11.47-.2c.15-.09.28-.21.4-.34l.48.47c-.15.18-.33.34-.52.47-.2.13-.41.22-.64.28-.23.06-.48.09-.76.09ZM242.05,69.17h3.01c0-.25-.03-.48-.1-.69-.07-.2-.16-.38-.29-.52-.12-.15-.27-.26-.44-.33-.17-.08-.37-.11-.58-.11-.19,0-.37.03-.55.1s-.33.17-.47.3c-.14.14-.27.31-.37.52-.1.21-.17.45-.21.74Z" stroke-width="0"/><path d="M247.06,72.46v-5.48h.79v.55c.09-.14.19-.25.31-.35.12-.1.24-.18.38-.23.14-.06.28-.08.43-.08.16,0,.31.03.44.1s.25.16.34.28c.09.12.15.26.19.42.07-.16.17-.3.29-.42.12-.12.27-.21.43-.28s.33-.1.51-.1c.18,0,.34.04.48.11s.25.17.34.29c.09.12.15.27.19.44s.06.36.05.56v4.2h-.79v-3.88c0-.34-.02-.58-.07-.73-.04-.15-.11-.25-.19-.29s-.17-.07-.26-.07c-.15,0-.29.07-.43.21s-.24.31-.32.52c-.08.21-.13.42-.13.62v3.62h-.8v-3.81c0-.46-.04-.76-.13-.91-.08-.15-.24-.23-.47-.23-.09,0-.18.03-.27.09s-.18.14-.26.25c-.08.11-.14.24-.19.4-.05.16-.07.34-.07.55v3.65h-.79Z" stroke-width="0"/><path d="M202.25,86.86v-7.48h1.74c.43,0,.8.04,1.09.12.3.08.55.19.76.34.21.15.39.33.55.56.17.22.31.48.41.75.11.28.19.58.24.92s.08.69.08,1.08c-.02.58-.1,1.09-.23,1.55-.13.46-.32.84-.58,1.16-.26.32-.59.56-.99.74-.4.17-.9.26-1.48.26h-1.6ZM203.04,86.2h.77c.58,0,1.05-.12,1.41-.35.36-.23.63-.57.81-1.02.18-.45.26-.99.25-1.63,0-.65-.08-1.21-.24-1.68-.16-.46-.41-.82-.75-1.07-.34-.25-.79-.37-1.35-.37h-.9v6.11Z" stroke-width="0"/><path d="M210.86,86.96c-.4,0-.76-.06-1.09-.19s-.61-.3-.85-.54c-.24-.24-.42-.53-.55-.89-.13-.35-.19-.76-.19-1.21s.07-.87.2-1.23c.13-.36.31-.66.54-.9.23-.24.5-.43.8-.55s.63-.19.98-.19c.31,0,.6.05.88.16s.51.26.71.47c.2.21.36.48.47.81.12.33.17.71.17,1.16,0,.06,0,.13,0,.2,0,.07-.01.13-.02.2h-3.9c.02.35.08.65.18.91.1.26.24.47.41.63s.36.28.58.36c.22.08.45.12.7.12.19,0,.37-.02.54-.07s.33-.11.47-.2c.15-.09.28-.21.4-.34l.48.47c-.15.18-.33.34-.52.47-.2.13-.41.22-.64.28s-.48.09-.76.09ZM209.05,83.57h3.01c0-.25-.03-.48-.1-.69-.07-.2-.16-.38-.29-.52-.12-.15-.27-.26-.44-.33-.17-.08-.37-.11-.58-.11-.19,0-.37.03-.55.1s-.33.17-.47.3c-.14.14-.27.31-.37.52-.1.21-.17.45-.21.74Z" stroke-width="0"/><path d="M215.54,82.06h-1.19v-.68h1.19v-.46c0-.49.09-.89.26-1.2.17-.31.41-.54.71-.69.3-.15.65-.22,1.04-.22.34,0,.67.06.97.19.3.12.55.31.75.57l-.46.64-.07.1-.07-.05c0-.06-.02-.13-.05-.19-.02-.06-.08-.14-.17-.24-.13-.11-.26-.19-.38-.24-.13-.05-.29-.07-.49-.07-.23,0-.44.05-.62.14s-.33.24-.43.44c-.1.2-.16.48-.16.83v.46h1.8v.68h-1.8v4.8h-.83v-4.8Z" stroke-width="0"/><path d="M220.8,86.86v-.7h1.4v-4.09h-1.33v-.7h2.2v4.79h1.28v.7h-3.55ZM222.59,80.22c-.17,0-.31-.06-.43-.18s-.18-.26-.18-.43.06-.32.17-.44.26-.18.44-.18.31.06.44.19.19.27.19.44-.06.31-.19.43-.27.18-.44.18Z" stroke-width="0"/><path d="M226.46,86.86v-5.48h.84v.98c.14-.22.31-.42.5-.58.19-.16.4-.29.64-.38.23-.09.47-.14.72-.14.3,0,.58.08.82.23.24.15.43.4.58.73.14.33.22.78.22,1.33v3.32h-.84v-3.29c0-.38-.04-.69-.13-.92-.09-.23-.21-.39-.36-.49-.15-.1-.32-.15-.52-.15s-.37.04-.56.12c-.19.08-.36.19-.52.34-.16.15-.29.33-.39.53-.1.21-.15.44-.15.71v3.15h-.84Z" stroke-width="0"/><path d="M232.8,86.86v-.7h1.4v-4.09h-1.33v-.7h2.2v4.79h1.28v.7h-3.55ZM234.59,80.22c-.17,0-.31-.06-.43-.18s-.18-.26-.18-.43.06-.32.17-.44.26-.18.44-.18.31.06.44.19.19.27.19.44-.06.31-.19.43-.27.18-.44.18Z" stroke-width="0"/><path d="M238.44,81.38h3.95v.71h-3.95v-.71ZM240.32,86.78c-.22-.12-.4-.31-.52-.56s-.2-.57-.23-.96-.05-.84-.03-1.37l.14-3.92.9-.11h.12s.01.07.01.07c-.04.06-.07.11-.1.17s-.05.15-.07.29l-.11,1.36.04.22-.08,1.98c-.02.61,0,1.08.05,1.41s.16.56.3.69c.14.12.34.19.58.19.26,0,.5-.05.7-.16s.42-.24.64-.4l.26.68c-.27.2-.55.35-.84.44-.29.1-.59.14-.9.14-.35,0-.64-.06-.86-.18Z" stroke-width="0"/><path d="M244.8,86.86v-.7h1.4v-4.09h-1.33v-.7h2.2v4.79h1.28v.7h-3.55ZM246.59,80.22c-.17,0-.31-.06-.43-.18s-.18-.26-.18-.43.06-.32.17-.44.26-.18.44-.18.31.06.44.19.19.27.19.44-.06.31-.19.43-.27.18-.44.18Z" stroke-width="0"/><path d="M252.6,86.96c-.5,0-.93-.12-1.31-.37s-.68-.58-.89-1.01c-.22-.43-.32-.92-.32-1.47s.11-1.05.32-1.48c.22-.43.51-.76.89-1.01s.82-.37,1.31-.37.93.12,1.31.37.68.58.89,1.01c.22.43.32.92.32,1.48s-.11,1.04-.32,1.47c-.22.43-.51.76-.89,1.01s-.82.37-1.31.37ZM252.6,86.24c.32,0,.6-.09.84-.28s.43-.44.57-.76c.14-.32.21-.69.21-1.1s-.07-.78-.21-1.1c-.14-.32-.33-.57-.57-.75-.24-.18-.52-.27-.84-.27s-.59.09-.83.27c-.24.18-.44.43-.58.75-.14.32-.21.69-.21,1.1s.07.78.21,1.1c.14.32.33.57.58.76s.52.28.83.28Z" stroke-width="0"/><path d="M256.46,86.86v-5.48h.84v.98c.14-.22.31-.42.5-.58.19-.16.4-.29.64-.38.23-.09.47-.14.72-.14.3,0,.58.08.82.23.24.15.43.4.58.73.14.33.22.78.22,1.33v3.32h-.84v-3.29c0-.38-.04-.69-.13-.92-.09-.23-.21-.39-.36-.49-.15-.1-.32-.15-.52-.15s-.37.04-.56.12c-.19.08-.36.19-.52.34-.16.15-.29.33-.39.53-.1.21-.15.44-.15.71v3.15h-.84Z" stroke-width="0"/><rect x="128.01" y="137.08" width="15" height="13.64" fill="none" stroke-width="0"/><rect x="134.98" y="138.09" width="1.5" height="2.53" fill="#231f20" stroke-width="0"/><rect x="134.98" y="142.63" width="1.5" height="2.53" fill="#231f20" stroke-width="0"/><rect x="134.98" y="147.15" width="1.5" height="2.53" fill="#231f20" stroke-width="0"/><rect x="128.01" y="123.45" width="15" height="13.64" fill="none" stroke-width="0"/><rect x="134.98" y="124.45" width="1.5" height="2.53" fill="#231f20" stroke-width="0"/><rect x="134.98" y="128.99" width="1.5" height="2.53" fill="#231f20" stroke-width="0"/><rect x="134.98" y="133.52" width="1.5" height="2.53" fill="#231f20" stroke-width="0"/><rect x="128.01" y="109.81" width="15" height="13.64" fill="none" stroke-width="0"/><rect x="134.98" y="110.82" width="1.5" height="2.53" fill="#231f20" stroke-width="0"/><rect x="134.98" y="115.36" width="1.5" height="2.53" fill="#231f20" stroke-width="0"/><rect x="134.98" y="119.88" width="1.5" height="2.53" fill="#231f20" stroke-width="0"/><rect x="128.01" y="96.17" width="15" height="13.64" fill="none" stroke-width="0"/><rect x="134.98" y="97.18" width="1.5" height="2.53" fill="#231f20" stroke-width="0"/><rect x="134.98" y="101.72" width="1.5" height="2.53" fill="#231f20" stroke-width="0"/><rect x="134.98" y="106.25" width="1.5" height="2.53" fill="#231f20" stroke-width="0"/><rect x="128.01" y="82.54" width="15" height="13.64" fill="none" stroke-width="0"/><rect x="134.98" y="83.54" width="1.5" height="2.53" fill="#231f20" stroke-width="0"/><rect x="134.98" y="88.08" width="1.5" height="2.53" fill="#231f20" stroke-width="0"/><rect x="134.98" y="92.61" width="1.5" height="2.53" fill="#231f20" stroke-width="0"/><rect x="128.01" y="68.9" width="15" height="13.64" fill="none" stroke-width="0"/><rect x="134.98" y="69.91" width="1.5" height="2.53" fill="#231f20" stroke-width="0"/><rect x="134.98" y="74.45" width="1.5" height="2.53" fill="#231f20" stroke-width="0"/><rect x="134.98" y="78.97" width="1.5" height="2.53" fill="#231f20" stroke-width="0"/><rect x="128.01" y="55.26" width="15" height="13.64" fill="none" stroke-width="0"/><rect x="134.98" y="56.27" width="1.5" height="2.53" fill="#231f20" stroke-width="0"/><rect x="134.98" y="60.81" width="1.5" height="2.53" fill="#231f20" stroke-width="0"/><rect x="134.98" y="65.34" width="1.5" height="2.53" fill="#231f20" stroke-width="0"/><rect x="128.01" y="41.63" width="15" height="13.64" fill="none" stroke-width="0"/><rect x="134.98" y="42.64" width="1.5" height="2.53" fill="#231f20" stroke-width="0"/><rect x="134.98" y="47.18" width="1.5" height="2.53" fill="#231f20" stroke-width="0"/><rect x="134.98" y="51.7" width="1.5" height="2.53" fill="#231f20" stroke-width="0"/><rect x="128.01" y="27.99" width="15" height="13.64" fill="none" stroke-width="0"/><rect x="134.98" y="29" width="1.5" height="2.53" fill="#231f20" stroke-width="0"/><rect x="134.98" y="33.54" width="1.5" height="2.53" fill="#231f20" stroke-width="0"/><rect x="134.98" y="38.06" width="1.5" height="2.53" fill="#231f20" stroke-width="0"/><rect x="128.01" y="14.36" width="15" height="13.64" fill="none" stroke-width="0"/><rect x="134.98" y="15.36" width="1.5" height="2.53" fill="#231f20" stroke-width="0"/><rect x="134.98" y="19.9" width="1.5" height="2.53" fill="#231f20" stroke-width="0"/><rect x="134.98" y="24.43" width="1.5" height="2.53" fill="#231f20" stroke-width="0"/><rect x="128.01" y=".72" width="15" height="13.64" fill="none" stroke-width="0"/><rect x="134.98" y="1.73" width="1.5" height="2.53" fill="#231f20" stroke-width="0"/><rect x="134.98" y="6.27" width="1.5" height="2.53" fill="#231f20" stroke-width="0"/><rect x="134.98" y="10.79" width="1.5" height="2.53" fill="#231f20" stroke-width="0"/><rect x="320.01" y="137.08" width="15" height="13.64" fill="none" stroke-width="0"/><rect x="326.98" y="138.09" width="1.5" height="2.53" fill="#231f20" stroke-width="0"/><rect x="326.98" y="142.63" width="1.5" height="2.53" fill="#231f20" stroke-width="0"/><rect x="326.98" y="147.15" width="1.5" height="2.53" fill="#231f20" stroke-width="0"/><rect x="320.01" y="123.45" width="15" height="13.64" fill="none" stroke-width="0"/><rect x="326.98" y="124.45" width="1.5" height="2.53" fill="#231f20" stroke-width="0"/><rect x="326.98" y="128.99" width="1.5" height="2.53" fill="#231f20" stroke-width="0"/><rect x="326.98" y="133.52" width="1.5" height="2.53" fill="#231f20" stroke-width="0"/><rect x="320.01" y="109.81" width="15" height="13.64" fill="none" stroke-width="0"/><rect x="326.98" y="110.82" width="1.5" height="2.53" fill="#231f20" stroke-width="0"/><rect x="326.98" y="115.36" width="1.5" height="2.53" fill="#231f20" stroke-width="0"/><rect x="326.98" y="119.88" width="1.5" height="2.53" fill="#231f20" stroke-width="0"/><rect x="320.01" y="96.17" width="15" height="13.64" fill="none" stroke-width="0"/><rect x="326.98" y="97.18" width="1.5" height="2.53" fill="#231f20" stroke-width="0"/><rect x="326.98" y="101.72" width="1.5" height="2.53" fill="#231f20" stroke-width="0"/><rect x="326.98" y="106.25" width="1.5" height="2.53" fill="#231f20" stroke-width="0"/><rect x="320.01" y="82.54" width="15" height="13.64" fill="none" stroke-width="0"/><rect x="326.98" y="83.54" width="1.5" height="2.53" fill="#231f20" stroke-width="0"/><rect x="326.98" y="88.08" width="1.5" height="2.53" fill="#231f20" stroke-width="0"/><rect x="326.98" y="92.61" width="1.5" height="2.53" fill="#231f20" stroke-width="0"/><rect x="320.01" y="68.9" width="15" height="13.64" fill="none" stroke-width="0"/><rect x="326.98" y="69.91" width="1.5" height="2.53" fill="#231f20" stroke-width="0"/><rect x="326.98" y="74.45" width="1.5" height="2.53" fill="#231f20" stroke-width="0"/><rect x="326.98" y="78.97" width="1.5" height="2.53" fill="#231f20" stroke-width="0"/><rect x="320.01" y="55.26" width="15" height="13.64" fill="none" stroke-width="0"/><rect x="326.98" y="56.27" width="1.5" height="2.53" fill="#231f20" stroke-width="0"/><rect x="326.98" y="60.81" width="1.5" height="2.53" fill="#231f20" stroke-width="0"/><rect x="326.98" y="65.34" width="1.5" height="2.53" fill="#231f20" stroke-width="0"/><rect x="320.01" y="41.63" width="15" height="13.64" fill="none" stroke-width="0"/><rect x="326.98" y="42.64" width="1.5" height="2.53" fill="#231f20" stroke-width="0"/><rect x="326.98" y="47.18" width="1.5" height="2.53" fill="#231f20" stroke-width="0"/><rect x="326.98" y="51.7" width="1.5" height="2.53" fill="#231f20" stroke-width="0"/><rect x="320.01" y="27.99" width="15" height="13.64" fill="none" stroke-width="0"/><rect x="326.98" y="29" width="1.5" height="2.53" fill="#231f20" stroke-width="0"/><rect x="326.98" y="33.54" width="1.5" height="2.53" fill="#231f20" stroke-width="0"/><rect x="326.98" y="38.06" width="1.5" height="2.53" fill="#231f20" stroke-width="0"/><rect x="320.01" y="14.36" width="15" height="13.64" fill="none" stroke-width="0"/><rect x="326.98" y="15.36" width="1.5" height="2.53" fill="#231f20" stroke-width="0"/><rect x="326.98" y="19.9" width="1.5" height="2.53" fill="#231f20" stroke-width="0"/><rect x="326.98" y="24.43" width="1.5" height="2.53" fill="#231f20" stroke-width="0"/><rect x="320.01" y=".72" width="15" height="13.64" fill="none" stroke-width="0"/><rect x="326.98" y="1.73" width="1.5" height="2.53" fill="#231f20" stroke-width="0"/><rect x="326.98" y="6.27" width="1.5" height="2.53" fill="#231f20" stroke-width="0"/><rect x="326.98" y="10.79" width="1.5" height="2.53" fill="#231f20" stroke-width="0"/><path d="M86.63,78.24v-6.23h1.45c.36,0,.66.03.91.1.25.07.46.16.63.28s.33.28.46.46c.14.19.25.4.34.63s.16.49.2.76c.04.28.06.58.06.9-.02.48-.08.91-.19,1.29-.11.38-.27.7-.48.97-.21.27-.49.47-.83.61-.34.14-.75.21-1.23.21h-1.33ZM87.29,77.69h.64c.48,0,.87-.1,1.18-.29.3-.19.53-.48.67-.85s.22-.82.21-1.36c0-.55-.07-1.01-.2-1.4-.13-.39-.34-.68-.62-.89-.28-.21-.66-.31-1.12-.31h-.75v5.09Z" stroke-width="0"/><path d="M92.09,78.24v-.58h1.17v-3.41h-1.11v-.58h1.83v3.99h1.07v.58h-2.96ZM93.58,72.71c-.14,0-.26-.05-.36-.15-.1-.1-.15-.22-.15-.36s.05-.27.15-.37c.1-.1.22-.15.37-.15s.26.05.36.16c.1.1.15.22.15.36s-.05.26-.15.36c-.1.1-.23.15-.36.15Z" stroke-width="0"/><path d="M97.88,78.24c-.23-.05-.45-.13-.65-.24-.2-.11-.39-.24-.56-.4l.4-.68.06-.09.06.04c.01.05.03.11.04.17s.06.12.14.21c.14.14.31.25.5.34s.45.13.75.13c.25,0,.46-.03.62-.09.17-.06.3-.14.4-.25s.14-.24.14-.38c0-.1-.02-.19-.06-.26s-.1-.15-.19-.21-.21-.13-.35-.2c-.15-.07-.33-.13-.54-.2-.35-.1-.65-.22-.91-.35-.26-.13-.46-.29-.6-.46-.14-.18-.21-.38-.21-.6s.06-.43.19-.6c.13-.17.32-.3.57-.4s.56-.14.92-.14c.21,0,.41.02.58.04s.33.08.48.13c.15.06.28.14.4.23.12.09.24.2.35.31l-.41.5-.07.08-.05-.05c0-.05-.02-.1-.04-.16-.02-.05-.07-.11-.15-.18-.15-.12-.33-.21-.52-.28-.19-.06-.38-.09-.56-.09-.27,0-.5.05-.69.14s-.29.23-.29.42c0,.1.04.2.1.29.07.1.2.19.38.29.19.1.45.19.8.29.38.12.69.24.92.36.23.12.4.26.5.42.1.16.15.35.15.57,0,.25-.07.49-.21.71s-.34.39-.62.52c-.28.13-.63.19-1.06.19-.25,0-.49-.03-.72-.08Z" stroke-width="0"/><path d="M103.02,78.14c-.28-.12-.52-.29-.73-.5-.2-.21-.36-.46-.48-.75s-.17-.61-.17-.95.06-.65.17-.94c.11-.29.27-.54.48-.75.2-.21.44-.38.73-.5.28-.12.58-.18.91-.18.37,0,.71.07,1.01.23.3.15.54.36.72.62l-.45.44-.07.07-.05-.05c0-.05-.01-.1-.04-.15-.02-.05-.07-.11-.15-.19-.15-.13-.3-.23-.47-.28s-.36-.08-.58-.08c-.19,0-.38.04-.55.12-.17.08-.33.19-.46.34-.14.15-.25.33-.33.54s-.12.45-.12.71.04.5.12.71c.08.22.19.4.33.56s.31.28.5.37.41.13.64.13c.15,0,.3-.02.44-.07.14-.04.27-.11.4-.19.13-.08.24-.18.35-.3l.42.49c-.23.24-.48.42-.75.54-.28.12-.58.18-.9.18s-.64-.06-.92-.18Z" stroke-width="0"/><path d="M108.59,78.32c-.41,0-.78-.1-1.1-.31-.32-.2-.56-.48-.74-.84-.18-.36-.27-.76-.27-1.22s.09-.88.27-1.23c.18-.36.43-.64.74-.84.32-.2.68-.3,1.1-.3s.78.1,1.1.3c.32.2.56.48.74.84.18.36.27.77.27,1.23s-.09.87-.27,1.22c-.18.36-.43.64-.74.84-.32.2-.68.31-1.1.31ZM108.59,77.72c.27,0,.5-.08.7-.23.2-.15.36-.36.47-.63s.18-.57.18-.92-.06-.65-.18-.92c-.12-.27-.27-.47-.47-.62-.2-.15-.43-.22-.7-.22s-.49.07-.69.22c-.2.15-.36.36-.48.62-.12.27-.18.57-.18.92s.06.65.18.92c.12.27.28.48.48.63.2.15.44.23.69.23Z" stroke-width="0"/><path d="M113.3,78.24l-1.81-4.57h.72l1.48,3.75h-.14l.81-1.86c.16-.37.29-.71.38-1.02.1-.31.17-.6.22-.87h.68c-.05.28-.14.59-.25.92s-.25.69-.42,1.08l-1.11,2.57h-.56Z" stroke-width="0"/><path d="M118.81,78.32c-.33,0-.64-.05-.91-.15s-.51-.25-.71-.45c-.2-.2-.35-.45-.46-.74-.11-.29-.16-.63-.16-1.01s.05-.73.16-1.02c.11-.3.26-.55.45-.75s.41-.36.67-.46.53-.16.81-.16c.26,0,.5.04.73.13s.42.22.59.39c.17.18.3.4.4.67.1.27.15.59.15.97,0,.05,0,.11,0,.16s0,.11-.01.16h-3.25c.01.29.06.54.15.76.09.21.2.39.34.52.14.14.3.24.48.3.18.07.38.1.59.1.16,0,.31-.02.45-.06.14-.04.27-.09.4-.17.12-.08.23-.17.33-.28l.4.39c-.13.15-.27.28-.44.39-.16.11-.34.18-.53.23-.19.05-.4.08-.63.08ZM117.3,75.5h2.51c0-.21-.03-.4-.09-.57-.06-.17-.14-.31-.24-.44-.1-.12-.23-.22-.37-.28-.14-.06-.3-.09-.48-.09-.16,0-.31.03-.46.08-.14.05-.27.14-.4.25-.12.12-.22.26-.31.43-.08.17-.14.38-.17.62Z" stroke-width="0"/><path d="M122.28,73.67h.75l-.03,1.34-.09-.15c.04-.21.11-.39.21-.55.1-.16.22-.29.36-.4.14-.11.29-.19.46-.25.17-.06.34-.08.52-.08.24,0,.46.04.67.12.2.08.38.21.54.38l-.32.56-.04.09-.07-.04c-.01-.05-.03-.1-.06-.15-.03-.05-.08-.1-.17-.17-.11-.07-.21-.11-.29-.14-.09-.02-.19-.03-.31-.03-.17,0-.33.03-.5.09s-.32.16-.45.29c-.14.13-.25.3-.33.51s-.12.45-.12.74v2.42h-.73v-4.57Z" stroke-width="0"/><path d="M148.25,78.24v-6.23h1.45c.36,0,.66.03.91.1.25.07.46.16.63.28s.33.28.46.46c.14.19.25.4.34.63s.16.49.2.76c.04.28.06.58.06.9-.02.48-.08.91-.19,1.29-.11.38-.27.7-.48.97-.21.27-.49.47-.83.61-.34.14-.75.21-1.23.21h-1.33ZM148.91,77.69h.64c.48,0,.87-.1,1.18-.29.3-.19.53-.48.67-.85.15-.37.22-.82.21-1.36,0-.55-.07-1.01-.2-1.4-.13-.39-.34-.68-.62-.89-.28-.21-.66-.31-1.12-.31h-.75v5.09Z" stroke-width="0"/><path d="M155.43,78.32c-.33,0-.64-.05-.91-.15s-.51-.25-.71-.45c-.2-.2-.35-.45-.46-.74s-.16-.63-.16-1.01.05-.73.16-1.02c.11-.3.26-.55.45-.75s.41-.36.67-.46.53-.16.81-.16c.26,0,.5.04.73.13s.42.22.59.39c.17.18.3.4.4.67.1.27.15.59.15.97,0,.05,0,.11,0,.16s0,.11-.01.16h-3.25c.01.29.06.54.15.76.09.21.2.39.34.52s.3.24.48.3c.18.07.38.1.59.1.16,0,.31-.02.45-.06.14-.04.27-.09.4-.17.12-.08.23-.17.33-.28l.4.39c-.13.15-.27.28-.44.39-.16.11-.34.19-.53.24s-.4.08-.63.08ZM153.92,75.5h2.51c0-.21-.03-.4-.09-.57-.06-.17-.14-.31-.24-.44-.1-.12-.23-.22-.37-.28-.14-.06-.3-.09-.48-.09-.16,0-.31.03-.46.08-.14.05-.27.14-.4.25-.12.12-.22.26-.31.43-.08.17-.14.38-.17.62Z" stroke-width="0"/><path d="M159.33,74.24h-.99v-.57h.99v-.38c0-.41.07-.74.21-1,.14-.26.34-.45.6-.57.25-.12.54-.19.87-.19.29,0,.56.05.81.15.25.1.46.26.62.48l-.38.53-.06.08-.06-.04c0-.05-.02-.11-.04-.16s-.07-.12-.14-.2c-.11-.09-.21-.16-.32-.2-.11-.04-.24-.06-.41-.06-.19,0-.37.04-.52.11s-.27.2-.36.37-.13.4-.13.69v.38h1.5v.57h-1.5v4h-.69v-4Z" stroke-width="0"/><path d="M163.71,78.24v-.58h1.17v-3.41h-1.11v-.58h1.83v3.99h1.07v.58h-2.96ZM165.2,72.71c-.14,0-.26-.05-.36-.15-.1-.1-.15-.22-.15-.36s.05-.27.15-.37c.1-.1.22-.15.37-.15s.26.05.36.16c.1.1.15.22.15.36s-.05.26-.15.36c-.1.1-.23.15-.36.15Z" stroke-width="0"/><path d="M168.43,78.24v-4.57h.7v.82c.12-.19.26-.35.42-.48.16-.14.34-.24.53-.32.19-.08.39-.11.6-.11.25,0,.48.06.68.19.2.13.36.33.48.61s.18.65.18,1.11v2.76h-.7v-2.74c0-.32-.04-.57-.11-.76s-.17-.33-.3-.41c-.13-.08-.27-.12-.43-.12s-.31.03-.46.1c-.16.07-.3.16-.44.28-.13.12-.24.27-.33.44s-.12.37-.12.59v2.62h-.7Z" stroke-width="0"/><path d="M175.43,78.32c-.33,0-.64-.05-.91-.15s-.51-.25-.71-.45c-.2-.2-.35-.45-.46-.74s-.16-.63-.16-1.01.05-.73.16-1.02c.11-.3.26-.55.45-.75s.41-.36.67-.46.53-.16.81-.16c.26,0,.5.04.73.13s.42.22.59.39c.17.18.3.4.4.67.1.27.15.59.15.97,0,.05,0,.11,0,.16s0,.11-.01.16h-3.25c.01.29.06.54.15.76.09.21.2.39.34.52s.3.24.48.3c.18.07.38.1.59.1.16,0,.31-.02.45-.06.14-.04.27-.09.4-.17.12-.08.23-.17.33-.28l.4.39c-.13.15-.27.28-.44.39-.16.11-.34.19-.53.24s-.4.08-.63.08ZM173.92,75.5h2.51c0-.21-.03-.4-.09-.57-.06-.17-.14-.31-.24-.44-.1-.12-.23-.22-.37-.28-.14-.06-.3-.09-.48-.09-.16,0-.31.03-.46.08-.14.05-.27.14-.4.25-.12.12-.22.26-.31.43-.08.17-.14.38-.17.62Z" stroke-width="0"/><path d="M279.92,78.24v-6.23h1.45c.36,0,.66.03.91.1.25.07.46.16.63.28.17.12.33.28.46.46.14.19.25.4.34.63s.16.49.2.76c.04.28.07.58.07.9-.02.48-.08.91-.19,1.29s-.27.7-.48.97c-.21.27-.49.47-.83.61-.34.14-.75.21-1.24.21h-1.33ZM280.58,77.69h.64c.48,0,.87-.1,1.18-.29.3-.19.53-.48.67-.85.15-.37.22-.82.21-1.36,0-.55-.07-1.01-.2-1.4s-.34-.68-.62-.89c-.28-.21-.66-.31-1.12-.31h-.75v5.09Z" stroke-width="0"/><path d="M287.1,78.32c-.33,0-.64-.05-.91-.15s-.51-.25-.71-.45c-.2-.2-.35-.45-.46-.74s-.16-.63-.16-1.01.05-.73.17-1.02c.11-.3.26-.55.45-.75.19-.2.41-.36.67-.46s.53-.16.81-.16c.26,0,.5.04.73.13.23.09.42.22.59.39s.3.4.4.67c.1.27.14.59.14.97,0,.05,0,.11,0,.16,0,.06,0,.11-.01.16h-3.25c.01.29.06.54.15.76.09.21.2.39.34.52.14.13.3.24.49.3.18.07.38.1.58.1.16,0,.31-.02.45-.06.14-.04.27-.09.39-.17.12-.08.24-.17.33-.28l.4.39c-.13.15-.27.28-.44.39-.16.11-.34.19-.53.24s-.4.08-.63.08ZM285.59,75.5h2.51c0-.21-.03-.4-.09-.57-.06-.17-.14-.31-.24-.44-.1-.12-.23-.22-.37-.28-.14-.06-.3-.09-.49-.09-.16,0-.31.03-.46.08-.14.05-.27.14-.39.25-.12.12-.22.26-.31.43-.08.17-.14.38-.17.62Z" stroke-width="0"/><path d="M291.59,78.24l-1.81-4.57h.72l1.48,3.75h-.14l.81-1.86c.16-.37.29-.71.38-1.02.1-.31.17-.6.21-.87h.68c-.05.28-.14.59-.25.92s-.25.69-.42,1.08l-1.11,2.57h-.56Z" stroke-width="0"/><path d="M297.1,78.32c-.33,0-.64-.05-.91-.15s-.51-.25-.71-.45c-.2-.2-.35-.45-.46-.74s-.16-.63-.16-1.01.05-.73.17-1.02c.11-.3.26-.55.45-.75.19-.2.41-.36.67-.46s.53-.16.81-.16c.26,0,.5.04.73.13.23.09.42.22.59.39s.3.4.4.67c.1.27.14.59.14.97,0,.05,0,.11,0,.16,0,.06,0,.11-.01.16h-3.25c.01.29.06.54.15.76.09.21.2.39.34.52.14.13.3.24.49.3.18.07.38.1.58.1.16,0,.31-.02.45-.06.14-.04.27-.09.39-.17.12-.08.24-.17.33-.28l.4.39c-.13.15-.27.28-.44.39-.16.11-.34.19-.53.24s-.4.08-.63.08ZM295.59,75.5h2.51c0-.21-.03-.4-.09-.57-.06-.17-.14-.31-.24-.44-.1-.12-.23-.22-.37-.28-.14-.06-.3-.09-.49-.09-.16,0-.31.03-.46.08-.14.05-.27.14-.39.25-.12.12-.22.26-.31.43-.08.17-.14.38-.17.62Z" stroke-width="0"/><path d="M300.17,78.24v-.58h1.35v-5.49h-1.29v-.58h2.02v6.07h1.34v.58h-3.42Z" stroke-width="0"/><path d="M306.88,78.32c-.41,0-.78-.1-1.09-.31-.32-.2-.57-.48-.75-.84s-.27-.77-.27-1.23.09-.88.27-1.23.43-.64.75-.84c.32-.2.68-.3,1.09-.3s.78.1,1.1.3c.32.2.56.48.74.84.18.36.27.77.27,1.23s-.09.87-.27,1.23c-.18.36-.43.64-.74.84-.32.2-.68.31-1.1.31ZM306.88,77.72c.27,0,.5-.08.7-.23s.36-.36.47-.63c.12-.27.18-.57.18-.92s-.06-.65-.18-.92c-.12-.27-.27-.47-.47-.62-.2-.15-.43-.22-.7-.22s-.49.07-.69.22c-.2.15-.36.36-.48.62-.12.27-.17.57-.17.92s.06.65.17.92c.12.27.28.48.48.63.2.15.43.23.69.23Z" stroke-width="0"/><path d="M309.98,79.91v-6.24h.73v.9c.07-.23.18-.42.32-.57.14-.15.3-.25.48-.32s.38-.1.6-.1c.25,0,.49.05.72.14.23.1.43.24.61.43.18.19.32.43.42.72.1.29.15.63.15,1.03s-.05.75-.17,1.05c-.11.3-.26.56-.44.76-.18.2-.39.35-.62.46-.23.1-.46.15-.71.15-.18,0-.35-.03-.53-.08-.17-.06-.32-.14-.46-.25-.14-.11-.26-.24-.37-.39v2.31h-.74ZM311.96,77.68c.16,0,.32-.03.47-.08.15-.06.29-.15.42-.28.13-.13.23-.31.3-.54.07-.23.11-.51.11-.85,0-.36-.05-.67-.14-.92s-.23-.45-.41-.59c-.18-.14-.39-.21-.64-.23-.19-.01-.36.01-.53.08-.16.07-.31.17-.43.33-.13.15-.23.35-.29.6-.07.25-.11.55-.11.89,0,.21.03.4.07.57s.1.32.17.45c.07.13.16.23.26.32.1.08.21.15.34.19.13.04.26.06.41.06Z" stroke-width="0"/><path d="M342.33,78.24v-6.23h1.45c.36,0,.66.03.91.1.25.07.46.16.63.28.17.12.33.28.46.46.14.19.25.4.34.63s.16.49.2.76c.04.28.06.58.06.9-.02.48-.08.91-.19,1.29-.11.38-.27.7-.48.97-.21.27-.49.47-.83.61-.34.14-.75.21-1.23.21h-1.33ZM342.99,77.69h.64c.48,0,.87-.1,1.17-.29.3-.19.53-.48.67-.85s.22-.82.21-1.36c0-.55-.07-1.01-.2-1.4-.13-.39-.34-.68-.62-.89-.28-.21-.66-.31-1.12-.31h-.75v5.09Z" stroke-width="0"/><path d="M349.51,78.32c-.33,0-.64-.05-.91-.15s-.51-.25-.71-.45c-.2-.2-.35-.45-.46-.74-.11-.29-.16-.63-.16-1.01s.05-.73.16-1.02c.11-.3.26-.55.45-.75.19-.2.41-.36.67-.46s.53-.16.82-.16c.26,0,.5.04.73.13s.42.22.59.39c.17.18.3.4.39.67.1.27.15.59.15.97,0,.05,0,.11,0,.16,0,.06,0,.11-.01.16h-3.25c.01.29.06.54.15.76.09.21.2.39.34.52.14.13.3.24.48.3.18.07.38.1.59.1.16,0,.31-.02.45-.06.14-.04.27-.09.4-.17.12-.08.23-.17.33-.28l.4.39c-.13.15-.27.28-.43.39-.16.11-.34.19-.54.24s-.4.08-.63.08ZM348,75.5h2.51c0-.21-.03-.4-.08-.57-.06-.17-.14-.31-.24-.44s-.23-.22-.37-.28c-.14-.06-.3-.09-.48-.09-.16,0-.31.03-.46.08-.14.05-.28.14-.4.25-.12.12-.22.26-.3.43-.08.17-.14.38-.17.62Z" stroke-width="0"/><path d="M352.58,78.24v-.58h1.35v-5.49h-1.29v-.58h2.02v6.07h1.34v.58h-3.42Z" stroke-width="0"/><path d="M357.79,78.24v-.58h1.17v-3.41h-1.11v-.58h1.83v3.99h1.07v.58h-2.96ZM359.28,72.71c-.14,0-.26-.05-.36-.15-.1-.1-.15-.22-.15-.36s.05-.27.15-.37c.1-.1.22-.15.37-.15.14,0,.26.05.36.16.1.1.16.22.16.36s-.05.26-.16.36c-.1.1-.22.15-.36.15Z" stroke-width="0"/><path d="M364,78.24l-1.81-4.57h.72l1.48,3.75h-.14l.81-1.86c.16-.37.29-.71.38-1.02.1-.31.17-.6.22-.87h.68c-.05.28-.14.59-.25.92s-.25.69-.42,1.08l-1.11,2.57h-.56Z" stroke-width="0"/><path d="M369.51,78.32c-.33,0-.64-.05-.91-.15s-.51-.25-.71-.45c-.2-.2-.35-.45-.46-.74-.11-.29-.16-.63-.16-1.01s.05-.73.16-1.02c.11-.3.26-.55.45-.75.19-.2.41-.36.67-.46s.53-.16.82-.16c.26,0,.5.04.73.13s.42.22.59.39c.17.18.3.4.39.67.1.27.15.59.15.97,0,.05,0,.11,0,.16,0,.06,0,.11-.01.16h-3.25c.01.29.06.54.15.76.09.21.2.39.34.52.14.13.3.24.48.3.18.07.38.1.59.1.16,0,.31-.02.45-.06.14-.04.27-.09.4-.17.12-.08.23-.17.33-.28l.4.39c-.13.15-.27.28-.43.39-.16.11-.34.19-.54.24s-.4.08-.63.08ZM368,75.5h2.51c0-.21-.03-.4-.08-.57-.06-.17-.14-.31-.24-.44s-.23-.22-.37-.28c-.14-.06-.3-.09-.48-.09-.16,0-.31.03-.46.08-.14.05-.28.14-.4.25-.12.12-.22.26-.3.43-.08.17-.14.38-.17.62Z" stroke-width="0"/><path d="M372.98,73.67h.75l-.03,1.34-.09-.15c.04-.21.11-.39.21-.55.1-.16.22-.29.36-.4s.29-.19.46-.25.34-.08.52-.08c.24,0,.46.04.67.12.2.08.38.21.54.38l-.32.56-.04.09-.07-.04c-.01-.05-.03-.1-.06-.15-.03-.05-.08-.1-.17-.17-.11-.07-.21-.11-.29-.14-.09-.02-.19-.03-.31-.03-.17,0-.33.03-.5.09-.17.06-.32.16-.45.29-.14.13-.25.3-.33.51s-.12.45-.12.74v2.42h-.73v-4.57Z" stroke-width="0"/><line x1=".01" y1="168.22" x2="460.01" y2="168.22" fill="none" stroke="#231f20" stroke-miterlimit="10"/><line x1=".5" y1="163.22" x2=".5" y2="173.22" fill="none" stroke="#231f20" stroke-miterlimit="10"/><line x1="231.51" y1="163.22" x2="231.51" y2="173.22" fill="none" stroke="#231f20" stroke-miterlimit="10"/><line x1="460.01" y1="163.22" x2="460.01" y2="173.22" fill="none" stroke="#231f20" stroke-miterlimit="10"/><text transform="translate(74.01 190.54)" font-family="Inconsolata-Regular, Inconsolata" font-size="12" font-variation-settings="&apos;wght&apos; 400, &apos;wdth&apos; 100"><tspan x="0" y="0">Research Phase</tspan></text><text transform="translate(309.76 190.54)" font-family="Inconsolata-Regular, Inconsolata" font-size="12" font-variation-settings="&apos;wght&apos; 400, &apos;wdth&apos; 100"><tspan x="0" y="0">Design Phase</tspan></text><path d="M448.01,60.72h-51c-2.67,0-5.13.89-7.12,2.38L327.51.72l-60.46,60.46c-2.15-3.28-5.85-5.46-10.04-5.46h-51c-4.19,0-7.89,2.18-10.04,5.46L135.5.71l-62.86,62.86c-2.1-1.78-4.8-2.86-7.75-2.86H13.88c-6.6,0-12,5.4-12,12v6c0,6.6,5.4,12,12,12h51c2.95,0,5.65-1.08,7.75-2.86l62.86,62.86,60.46-60.46c2.15,3.29,5.85,5.48,10.05,5.48h51c4.19,0,7.89-2.18,10.04-5.46l60.46,60.46,62.38-62.38c2,1.48,4.46,2.38,7.12,2.38h51c6.6,0,12-5.4,12-12v-6c0-6.6-5.4-12-12-12Z" fill="none" stroke="#000" stroke-miterlimit="10"/></svg>