<?xml version="1.0" encoding="UTF-8"?><svg id="a" xmlns="http://www.w3.org/2000/svg" viewBox="0 0 500 500"><path d="m209.87,259.88c-4.22.76-7.9,1.7-11.62,2.05-16.14,1.48-32.29,2.87-48.45,4.09-2.83.21-3.86,1.31-4.05,3.93-.6,8.31-1.18,16.62-1.97,24.92-.47,4.94-1.23,9.85-2.07,14.74-.19,1.1-1.1,2.71-1.95,2.91-1,.23-2.76-.5-3.37-1.39-1.3-1.88-2.52-4.04-2.96-6.24-.91-4.57-1.83-9.25-1.78-13.87.3-26.91.8-53.81,1.46-80.71.13-5.23,1.19-10.44,1.94-15.65.55-3.83,2.19-6.74,6.71-6.53,3.14.14,6.35,3.66,6.52,7.69.35,8.03.6,16.08.56,24.12-.04,9.36-.34,18.72-.73,28.07-.14,3.4.9,4.11,4.3,3.8,13.37-1.2,26.77-2.24,40.19-2.84,4.9-.22,9.18-.38,14.07.42,2.53.42,4.45.9,4.42-1.55-.15-13.86.23-27.75-.78-41.55-.59-8.11-4.02-10.45-12.33-10.75-8.6-.32-17.23.1-25.85.14-3.41.02-10.1.26-9.19-4.33.41-2.08,3.24-3.04,5.13-3.57,13.31-3.75,26.86-6.28,40.59-2.84,8.96,2.24,14.38,8.96,16.62,17.54,1.76,6.73,3.08,13.89,2.74,20.77-.93,18.81-2.5,37.61-4.53,56.34-1.02,9.38-3.38,18.65-5.59,27.85-.74,3.09-1.46,8.28-7.07,4.07-.49-.37-1.88.38-2.82.71-15.9,5.77-31.66,11.99-47.76,17.14-6.21,1.99-13.22,2.27-19.8,1.97-3.02-.14-6.05-3.36-8.79-5.55-1.81-1.45-2.42-3.39-.37-5.63,1.9-2.07,3.48-2.48,6.42-1.99,3.98.66,8.35.32,12.34-.56,11.83-2.63,23.49-6.02,35.33-8.55,6.68-1.42,13.58-1.79,20.4-2.5,2.01-.21,3.65-.12,3.68-3,.14-13.29.47-26.57.7-39.86.02-.99-.15-1.99-.3-3.81Z" stroke-width="0"/><path d="m336.42,202.44c.61,2.64-6.89,3.28-9.91,4.15-6.99,2.02-14.17,3.45-21.33,4.83-3.32.64-4.43,2.19-4.8,5.54-.27,2.44-.61,4.91-1.1,7.34-.81,4.04.5,5.87,4.64,5.79,9.64-.19,19.29-1,28.91-.66,11.2.39,22.37,1.71,33.54,2.69.98.09,2.04.45,2.84,1.01.85.59,1.72,1.43,1.62,2.5-.11,1.21-1.28,1.87-2.34,2.07-6.16,1.17-12.34,2.27-18.55,3.07-24.91,3.2-71.79,7.67-75.12,8.13-4.78.61-9.24.84-14,1.5-1.7.24-7.99,1.85-11.63.79-2.05-.59-4.05-2.91-4.68-5.17-.85-3.04,1.04-5.85,4.26-6.7,9.84-2.6,19.62-5.57,29.65-7.37,3.16-.57,6.37-.93,9.57-1.05,3.65-.14,4.96-1.84,4.3-5.31-.19-1-.36-2.01-.54-3.02-1.41-8.13-1.39-8.04-9.63-6.49-6.15,1.16-12.34,2.17-18.54,3.02-1.67.23-3.58-.05-5.14-.68-1.13-.45-2.51-1.8-2.63-2.87-.11-1.07.97-2.98,1.96-3.33,6.98-2.46,13.97-5.01,21.14-6.75,11.07-2.68,10.99-2.41,10.85-13.76-.05-4.09-.99-5.32-5.36-4.43-5.96,1.22-12.11,1.74-18.2,1.96-1.62.06-4.74-1.73-4.98-3.19-.26-1.57,2.26-4.38,3.95-4.98,6.31-2.22,12.79-4.05,19.34-5.43,4-.84,5.41-2.39,5.58-6.63.31-7.81,1.38-15.6,2.51-23.34.24-1.63,1.35-4.61,3.22-4.54s2.63,3.03,2.82,4.67c.85,7.38,1.43,14.8,1.79,22.22.18,3.7,1.49,4.61,5.15,4.21,8.99-.98,18.02-1.57,27.05-2.07,1.47-.08,4.29.49,4.53,1.67.26,1.27-2.33,3.07-3.82,3.51-9.07,2.71-18.18,5.36-27.4,7.49-3.89.9-5.55,2.44-5.19,6.42.25,2.75.12,5.56,0,8.33-.15,3.15,1.17,3.8,4.23,3.67,8.6-.38,17.22-.32,25.83-.38,1.41,0,5.33.26,5.62,1.54Z" stroke-width="0"/><path d="m278.38,305.09v12.28c16.33-4.22,32.1-.49,47.75,4.09,1.55.45,5.65,2.99,3.79,4.17-5.13,3.23-8.78,2.4-18.83,2.23-11.12-.18-22.49.47-33.16-3.29-.18,1.02-.39,2.63-.74,4.2-1.64,7.32-3.26,14.66-5.06,21.94-.26,1.03-1.47,1.83-2.24,2.74-.76-.95-1.82-1.78-2.24-2.86-4.12-10.59-5.27-21.73-5.54-32.95-.26-11.1-.38-22.23.1-33.31.18-4.12,1.77-8.37,3.56-12.16,1.26-2.68,4.63-3.65,7.24-1.97,1.93,1.25,3.93,3.65,4.3,5.81.88,5.15.8,10.47,1.13,15.72.09,1.41.24,2.81.41,4.71,12.55-3.73,24.93-3.09,37.27-2.26,3.86.26,7.69,1.45,11.45,2.48.85.23,1.95,1.66,1.9,2.47-.05.76-1.39,1.92-2.3,2.06-11.8,1.83-23.36,2.75-35.23,4.08-4.38-.02-8.54.32-13.57-.18Z" stroke-width="0"/><path d="m334.54,360.96c3.84-16.14,6.85-31.35,6.04-46.87-.45-8.53-2.06-17.12-4.18-25.41-2.2-8.6-8.33-14.36-16.93-16.7-8.78-2.4-17.7-3.64-26.72-.51-1.56.54-4.6.89-5.51-.75-1.17-2.12,1.27-5.35,2.95-6.53,8.75-6.14,18.71-6.54,28.96-5.1,18.94,2.66,31.1,17.17,34.58,35.12,3.26,16.82,1.49,33.3-3.73,49.28-1.96,5.99-3.85,13.1-10.88,16.11-1.23.53-2.59.78-4.58,1.36Z" stroke-width="0"/></svg>